<svg xmlns="http://www.w3.org/2000/svg" xmlns:xlink="http://www.w3.org/1999/xlink" width="1080" zoomAndPan="magnify" viewBox="0 0 810 809.999993" height="1080" preserveAspectRatio="xMidYMid meet" version="1.0"><defs><g/></defs><g fill="#ffffff" fill-opacity="1"><g transform="translate(60.49804, 362.250002)"><g><path d="M 2.46875 -55.828125 L 17.875 -55.828125 C 21.863281 -55.828125 24.851562 -54.722656 26.84375 -52.515625 C 28.832031 -50.304688 29.851562 -47.035156 29.90625 -42.703125 L 30.03125 -16.578125 C 30.070312 -11.066406 29.117188 -6.925781 27.171875 -4.15625 C 25.222656 -1.382812 21.992188 0 17.484375 0 L 2.46875 0 Z M 15.671875 -9.875 C 17.703125 -9.875 18.71875 -10.875 18.71875 -12.875 L 18.71875 -41.671875 C 18.71875 -42.921875 18.617188 -43.859375 18.421875 -44.484375 C 18.234375 -45.117188 17.878906 -45.539062 17.359375 -45.75 C 16.835938 -45.96875 16.035156 -46.078125 14.953125 -46.078125 L 13.71875 -46.078125 L 13.71875 -9.875 Z M 15.671875 -9.875 "/></g></g></g><g fill="#ffffff" fill-opacity="1"><g transform="translate(92.539218, 362.250002)"><g><path d="M 15.796875 0.515625 C 11.285156 0.515625 7.859375 -0.859375 5.515625 -3.609375 C 3.179688 -6.359375 2.015625 -10.222656 2.015625 -15.203125 L 2.015625 -41.796875 C 2.015625 -46.609375 3.179688 -50.238281 5.515625 -52.6875 C 7.859375 -55.132812 11.285156 -56.359375 15.796875 -56.359375 C 20.304688 -56.359375 23.726562 -55.132812 26.0625 -52.6875 C 28.40625 -50.238281 29.578125 -46.609375 29.578125 -41.796875 L 29.578125 -15.203125 C 29.578125 -10.179688 28.40625 -6.304688 26.0625 -3.578125 C 23.726562 -0.847656 20.304688 0.515625 15.796875 0.515625 Z M 15.796875 -9.75 C 16.796875 -9.75 17.46875 -10.179688 17.8125 -11.046875 C 18.15625 -11.910156 18.328125 -13.125 18.328125 -14.6875 L 18.328125 -41.984375 C 18.328125 -43.203125 18.164062 -44.1875 17.84375 -44.9375 C 17.519531 -45.695312 16.859375 -46.078125 15.859375 -46.078125 C 13.992188 -46.078125 13.0625 -44.671875 13.0625 -41.859375 L 13.0625 -14.625 C 13.0625 -13.019531 13.253906 -11.804688 13.640625 -10.984375 C 14.035156 -10.160156 14.753906 -9.75 15.796875 -9.75 Z M 15.796875 -9.75 "/></g></g></g><g fill="#ffffff" fill-opacity="1"><g transform="translate(124.125448, 362.250002)"><g/></g></g><g fill="#ffffff" fill-opacity="1"><g transform="translate(139.333638, 362.250002)"><g><path d="M 15.46875 0.515625 C 11.394531 0.515625 8.132812 -0.757812 5.6875 -3.3125 C 3.238281 -5.875 2.015625 -9.382812 2.015625 -13.84375 L 2.015625 -39.578125 C 2.015625 -45.128906 3.117188 -49.3125 5.328125 -52.125 C 7.535156 -54.945312 11.003906 -56.359375 15.734375 -56.359375 C 19.847656 -56.359375 23.160156 -55.226562 25.671875 -52.96875 C 28.179688 -50.71875 29.4375 -47.46875 29.4375 -43.21875 L 29.4375 -33.609375 L 18.328125 -33.609375 L 18.328125 -41.859375 C 18.328125 -43.460938 18.128906 -44.566406 17.734375 -45.171875 C 17.347656 -45.773438 16.679688 -46.078125 15.734375 -46.078125 C 14.734375 -46.078125 14.046875 -45.726562 13.671875 -45.03125 C 13.304688 -44.34375 13.125 -43.328125 13.125 -41.984375 L 13.125 -13.96875 C 13.125 -12.5 13.34375 -11.425781 13.78125 -10.75 C 14.21875 -10.082031 14.867188 -9.75 15.734375 -9.75 C 17.460938 -9.75 18.328125 -11.15625 18.328125 -13.96875 L 18.328125 -24.046875 L 29.578125 -24.046875 L 29.578125 -13.515625 C 29.578125 -4.160156 24.875 0.515625 15.46875 0.515625 Z M 15.46875 0.515625 "/></g></g></g><g fill="#ffffff" fill-opacity="1"><g transform="translate(170.139965, 362.250002)"><g><path d="M 15.40625 0.515625 C 10.8125 0.515625 7.394531 -0.78125 5.15625 -3.375 C 2.925781 -5.976562 1.8125 -9.835938 1.8125 -14.953125 L 1.8125 -55.828125 L 12.671875 -55.828125 L 12.671875 -15.40625 C 12.671875 -13.625 12.84375 -12.234375 13.1875 -11.234375 C 13.539062 -10.242188 14.28125 -9.75 15.40625 -9.75 C 16.53125 -9.75 17.265625 -10.234375 17.609375 -11.203125 C 17.960938 -12.179688 18.140625 -13.582031 18.140625 -15.40625 L 18.140625 -55.828125 L 28.984375 -55.828125 L 28.984375 -14.953125 C 28.984375 -9.835938 27.867188 -5.976562 25.640625 -3.375 C 23.410156 -0.78125 20 0.515625 15.40625 0.515625 Z M 15.40625 0.515625 "/></g></g></g><g fill="#ffffff" fill-opacity="1"><g transform="translate(200.946291, 362.250002)"><g><path d="M 2.46875 -55.828125 L 19.625 -55.828125 C 22.351562 -55.828125 24.460938 -55.207031 25.953125 -53.96875 C 27.453125 -52.738281 28.460938 -51.007812 28.984375 -48.78125 C 29.503906 -46.550781 29.765625 -43.703125 29.765625 -40.234375 C 29.765625 -37.066406 29.351562 -34.59375 28.53125 -32.8125 C 27.707031 -31.039062 26.28125 -29.8125 24.25 -29.125 C 25.9375 -28.769531 27.160156 -27.921875 27.921875 -26.578125 C 28.679688 -25.234375 29.0625 -23.414062 29.0625 -21.125 L 28.921875 0 L 18 0 L 18 -21.84375 C 18 -23.40625 17.695312 -24.398438 17.09375 -24.828125 C 16.488281 -25.265625 15.382812 -25.484375 13.78125 -25.484375 L 13.78125 0 L 2.46875 0 Z M 16.515625 -35.171875 C 18.066406 -35.171875 18.84375 -36.859375 18.84375 -40.234375 C 18.84375 -41.703125 18.773438 -42.804688 18.640625 -43.546875 C 18.515625 -44.285156 18.28125 -44.796875 17.9375 -45.078125 C 17.59375 -45.359375 17.09375 -45.5 16.4375 -45.5 L 13.84375 -45.5 L 13.84375 -35.171875 Z M 16.515625 -35.171875 "/></g></g></g><g fill="#ffffff" fill-opacity="1"><g transform="translate(231.94759, 362.250002)"><g><path d="M 2.46875 -55.828125 L 19.625 -55.828125 C 22.351562 -55.828125 24.460938 -55.207031 25.953125 -53.96875 C 27.453125 -52.738281 28.460938 -51.007812 28.984375 -48.78125 C 29.503906 -46.550781 29.765625 -43.703125 29.765625 -40.234375 C 29.765625 -37.066406 29.351562 -34.59375 28.53125 -32.8125 C 27.707031 -31.039062 26.28125 -29.8125 24.25 -29.125 C 25.9375 -28.769531 27.160156 -27.921875 27.921875 -26.578125 C 28.679688 -25.234375 29.0625 -23.414062 29.0625 -21.125 L 28.921875 0 L 18 0 L 18 -21.84375 C 18 -23.40625 17.695312 -24.398438 17.09375 -24.828125 C 16.488281 -25.265625 15.382812 -25.484375 13.78125 -25.484375 L 13.78125 0 L 2.46875 0 Z M 16.515625 -35.171875 C 18.066406 -35.171875 18.84375 -36.859375 18.84375 -40.234375 C 18.84375 -41.703125 18.773438 -42.804688 18.640625 -43.546875 C 18.515625 -44.285156 18.28125 -44.796875 17.9375 -45.078125 C 17.59375 -45.359375 17.09375 -45.5 16.4375 -45.5 L 13.84375 -45.5 L 13.84375 -35.171875 Z M 16.515625 -35.171875 "/></g></g></g><g fill="#ffffff" fill-opacity="1"><g transform="translate(262.94889, 362.250002)"><g><path d="M 1.953125 0 L 1.953125 -55.828125 L 12.734375 -55.828125 L 12.734375 0 Z M -0.203125 -57.515625 L -0.203125 -64.609375 L 14.875 -71.5625 L 14.875 -60.515625 Z M -0.203125 -57.515625 "/></g></g></g><g fill="#ffffff" fill-opacity="1"><g transform="translate(277.702132, 362.250002)"><g><path d="M 15.46875 0.515625 C 11.394531 0.515625 8.132812 -0.757812 5.6875 -3.3125 C 3.238281 -5.875 2.015625 -9.382812 2.015625 -13.84375 L 2.015625 -39.578125 C 2.015625 -45.128906 3.117188 -49.3125 5.328125 -52.125 C 7.535156 -54.945312 11.003906 -56.359375 15.734375 -56.359375 C 19.847656 -56.359375 23.160156 -55.226562 25.671875 -52.96875 C 28.179688 -50.71875 29.4375 -47.46875 29.4375 -43.21875 L 29.4375 -33.609375 L 18.328125 -33.609375 L 18.328125 -41.859375 C 18.328125 -43.460938 18.128906 -44.566406 17.734375 -45.171875 C 17.347656 -45.773438 16.679688 -46.078125 15.734375 -46.078125 C 14.734375 -46.078125 14.046875 -45.726562 13.671875 -45.03125 C 13.304688 -44.34375 13.125 -43.328125 13.125 -41.984375 L 13.125 -13.96875 C 13.125 -12.5 13.34375 -11.425781 13.78125 -10.75 C 14.21875 -10.082031 14.867188 -9.75 15.734375 -9.75 C 17.460938 -9.75 18.328125 -11.15625 18.328125 -13.96875 L 18.328125 -24.046875 L 29.578125 -24.046875 L 29.578125 -13.515625 C 29.578125 -4.160156 24.875 0.515625 15.46875 0.515625 Z M 15.46875 0.515625 "/></g></g></g><g fill="#ffffff" fill-opacity="1"><g transform="translate(308.508458, 362.250002)"><g><path d="M 15.40625 0.515625 C 10.8125 0.515625 7.394531 -0.78125 5.15625 -3.375 C 2.925781 -5.976562 1.8125 -9.835938 1.8125 -14.953125 L 1.8125 -55.828125 L 12.671875 -55.828125 L 12.671875 -15.40625 C 12.671875 -13.625 12.84375 -12.234375 13.1875 -11.234375 C 13.539062 -10.242188 14.28125 -9.75 15.40625 -9.75 C 16.53125 -9.75 17.265625 -10.234375 17.609375 -11.203125 C 17.960938 -12.179688 18.140625 -13.582031 18.140625 -15.40625 L 18.140625 -55.828125 L 28.984375 -55.828125 L 28.984375 -14.953125 C 28.984375 -9.835938 27.867188 -5.976562 25.640625 -3.375 C 23.410156 -0.78125 20 0.515625 15.40625 0.515625 Z M 15.40625 0.515625 "/></g></g></g><g fill="#ffffff" fill-opacity="1"><g transform="translate(339.314785, 362.250002)"><g><path d="M 2.46875 0 L 2.46875 -55.828125 L 13.65625 -55.828125 L 13.65625 -9.484375 L 25.15625 -9.484375 L 25.15625 0 Z M 2.46875 0 "/></g></g></g><g fill="#ffffff" fill-opacity="1"><g transform="translate(365.116701, 362.250002)"><g><path d="M 15.796875 0.515625 C 11.285156 0.515625 7.859375 -0.859375 5.515625 -3.609375 C 3.179688 -6.359375 2.015625 -10.222656 2.015625 -15.203125 L 2.015625 -41.796875 C 2.015625 -46.609375 3.179688 -50.238281 5.515625 -52.6875 C 7.859375 -55.132812 11.285156 -56.359375 15.796875 -56.359375 C 20.304688 -56.359375 23.726562 -55.132812 26.0625 -52.6875 C 28.40625 -50.238281 29.578125 -46.609375 29.578125 -41.796875 L 29.578125 -15.203125 C 29.578125 -10.179688 28.40625 -6.304688 26.0625 -3.578125 C 23.726562 -0.847656 20.304688 0.515625 15.796875 0.515625 Z M 15.796875 -9.75 C 16.796875 -9.75 17.46875 -10.179688 17.8125 -11.046875 C 18.15625 -11.910156 18.328125 -13.125 18.328125 -14.6875 L 18.328125 -41.984375 C 18.328125 -43.203125 18.164062 -44.1875 17.84375 -44.9375 C 17.519531 -45.695312 16.859375 -46.078125 15.859375 -46.078125 C 13.992188 -46.078125 13.0625 -44.671875 13.0625 -41.859375 L 13.0625 -14.625 C 13.0625 -13.019531 13.253906 -11.804688 13.640625 -10.984375 C 14.035156 -10.160156 14.753906 -9.75 15.796875 -9.75 Z M 15.796875 -9.75 "/></g></g></g><g fill="#ffffff" fill-opacity="1"><g transform="translate(396.702919, 362.250002)"><g/></g></g><g fill="#ffffff" fill-opacity="1"><g transform="translate(411.91111, 362.250002)"><g><path d="M 0.96875 0 L 6.375 -55.828125 L 25.28125 -55.828125 L 30.609375 0 L 20.015625 0 L 19.234375 -9.03125 L 12.484375 -9.03125 L 11.828125 0 Z M 13.328125 -17.9375 L 18.390625 -17.9375 L 15.921875 -46.34375 L 15.40625 -46.34375 Z M 23.265625 -57.515625 L 8.1875 -60.515625 L 8.1875 -71.5625 L 23.265625 -64.609375 Z M 23.265625 -57.515625 "/></g></g></g><g fill="#ffffff" fill-opacity="1"><g transform="translate(443.432348, 362.250002)"><g/></g></g><g fill="#ffffff" fill-opacity="1"><g transform="translate(458.640538, 362.250002)"><g><path d="M 2.46875 0 L 2.46875 -55.828125 L 24.828125 -55.828125 L 24.828125 -45.046875 L 13.84375 -45.046875 L 13.84375 -34.1875 L 24.375 -34.1875 L 24.375 -23.65625 L 13.84375 -23.65625 L 13.84375 -10.859375 L 25.546875 -10.859375 L 25.546875 0 Z M 2.46875 0 "/></g></g></g><g fill="#ffffff" fill-opacity="1"><g transform="translate(485.417332, 362.250002)"><g><path d="M 2.46875 0 L 2.46875 -55.828125 L 13.96875 -55.828125 L 19.109375 -29.125 L 19.109375 -55.828125 L 29.90625 -55.828125 L 29.90625 0 L 18.984375 0 L 13.390625 -27.953125 L 13.390625 0 Z M 2.46875 0 "/></g></g></g><g fill="#ffffff" fill-opacity="1"><g transform="translate(517.783465, 362.250002)"><g><path d="M 7.28125 0 L 7.28125 -45.109375 L 0.65625 -45.109375 L 0.65625 -55.828125 L 25.09375 -55.828125 L 25.09375 -45.109375 L 18.453125 -45.109375 L 18.453125 0 Z M 7.28125 0 "/></g></g></g><g fill="#ffffff" fill-opacity="1"><g transform="translate(543.520402, 362.250002)"><g><path d="M 2.46875 -55.828125 L 19.625 -55.828125 C 22.351562 -55.828125 24.460938 -55.207031 25.953125 -53.96875 C 27.453125 -52.738281 28.460938 -51.007812 28.984375 -48.78125 C 29.503906 -46.550781 29.765625 -43.703125 29.765625 -40.234375 C 29.765625 -37.066406 29.351562 -34.59375 28.53125 -32.8125 C 27.707031 -31.039062 26.28125 -29.8125 24.25 -29.125 C 25.9375 -28.769531 27.160156 -27.921875 27.921875 -26.578125 C 28.679688 -25.234375 29.0625 -23.414062 29.0625 -21.125 L 28.921875 0 L 18 0 L 18 -21.84375 C 18 -23.40625 17.695312 -24.398438 17.09375 -24.828125 C 16.488281 -25.265625 15.382812 -25.484375 13.78125 -25.484375 L 13.78125 0 L 2.46875 0 Z M 16.515625 -35.171875 C 18.066406 -35.171875 18.84375 -36.859375 18.84375 -40.234375 C 18.84375 -41.703125 18.773438 -42.804688 18.640625 -43.546875 C 18.515625 -44.285156 18.28125 -44.796875 17.9375 -45.078125 C 17.59375 -45.359375 17.09375 -45.5 16.4375 -45.5 L 13.84375 -45.5 L 13.84375 -35.171875 Z M 16.515625 -35.171875 "/></g></g></g><g fill="#ffffff" fill-opacity="1"><g transform="translate(574.521712, 362.250002)"><g><path d="M 2.46875 0 L 2.46875 -55.828125 L 24.828125 -55.828125 L 24.828125 -45.046875 L 13.84375 -45.046875 L 13.84375 -34.1875 L 24.375 -34.1875 L 24.375 -23.65625 L 13.84375 -23.65625 L 13.84375 -10.859375 L 25.546875 -10.859375 L 25.546875 0 Z M 2.46875 0 "/></g></g></g><g fill="#ffffff" fill-opacity="1"><g transform="translate(601.298506, 362.250002)"><g><path d="M 7.609375 0 L 0.71875 -55.90625 L 11.375 -55.90625 L 15.46875 -17.875 L 19.109375 -55.90625 L 29.765625 -55.90625 L 22.875 0 Z M 7.609375 0 "/></g></g></g><g fill="#ffffff" fill-opacity="1"><g transform="translate(631.779843, 362.250002)"><g><path d="M 1.953125 0 L 1.953125 -55.828125 L 12.734375 -55.828125 L 12.734375 0 Z M 1.953125 0 "/></g></g></g><g fill="#ffffff" fill-opacity="1"><g transform="translate(646.533108, 362.250002)"><g><path d="M 15.734375 0.515625 C 10.660156 0.515625 6.992188 -0.738281 4.734375 -3.25 C 2.484375 -5.757812 1.359375 -9.8125 1.359375 -15.40625 L 1.359375 -20.859375 L 12.34375 -20.859375 L 12.34375 -13.90625 C 12.34375 -11.132812 13.234375 -9.75 15.015625 -9.75 C 16.015625 -9.75 16.707031 -10.039062 17.09375 -10.625 C 17.488281 -11.207031 17.6875 -12.191406 17.6875 -13.578125 C 17.6875 -15.398438 17.46875 -16.90625 17.03125 -18.09375 C 16.59375 -19.289062 16.035156 -20.289062 15.359375 -21.09375 C 14.691406 -21.894531 13.492188 -23.140625 11.765625 -24.828125 L 6.953125 -29.640625 C 3.222656 -33.273438 1.359375 -37.304688 1.359375 -41.734375 C 1.359375 -46.492188 2.453125 -50.117188 4.640625 -52.609375 C 6.835938 -55.109375 10.035156 -56.359375 14.234375 -56.359375 C 19.265625 -56.359375 22.882812 -55.023438 25.09375 -52.359375 C 27.300781 -49.691406 28.40625 -45.519531 28.40625 -39.84375 L 17.03125 -39.84375 L 16.96875 -43.6875 C 16.96875 -44.414062 16.757812 -44.992188 16.34375 -45.421875 C 15.9375 -45.859375 15.363281 -46.078125 14.625 -46.078125 C 13.757812 -46.078125 13.109375 -45.835938 12.671875 -45.359375 C 12.242188 -44.890625 12.03125 -44.242188 12.03125 -43.421875 C 12.03125 -41.597656 13.066406 -39.710938 15.140625 -37.765625 L 21.640625 -31.53125 C 23.160156 -30.050781 24.414062 -28.648438 25.40625 -27.328125 C 26.40625 -26.003906 27.207031 -24.441406 27.8125 -22.640625 C 28.425781 -20.847656 28.734375 -18.71875 28.734375 -16.25 C 28.734375 -10.75 27.722656 -6.578125 25.703125 -3.734375 C 23.691406 -0.898438 20.367188 0.515625 15.734375 0.515625 Z M 15.734375 0.515625 "/></g></g></g><g fill="#ffffff" fill-opacity="1"><g transform="translate(676.494517, 362.250002)"><g><path d="M 7.28125 0 L 7.28125 -45.109375 L 0.65625 -45.109375 L 0.65625 -55.828125 L 25.09375 -55.828125 L 25.09375 -45.109375 L 18.453125 -45.109375 L 18.453125 0 Z M 7.28125 0 "/></g></g></g><g fill="#ffffff" fill-opacity="1"><g transform="translate(702.231454, 362.250002)"><g><path d="M 0.96875 0 L 6.375 -55.828125 L 25.28125 -55.828125 L 30.609375 0 L 20.015625 0 L 19.234375 -9.03125 L 12.484375 -9.03125 L 11.828125 0 Z M 13.328125 -17.9375 L 18.390625 -17.9375 L 15.921875 -46.34375 L 15.40625 -46.34375 Z M 13.328125 -17.9375 "/></g></g></g><g fill="#ffffff" fill-opacity="1"><g transform="translate(733.752692, 362.250002)"><g><path d="M 2.140625 -31 L 2.140625 -40.4375 L 13.515625 -40.4375 L 13.515625 -31 Z M 2.140625 -7.546875 L 2.140625 -16.96875 L 13.515625 -16.96875 L 13.515625 -7.546875 Z M 2.140625 -7.546875 "/></g></g></g><g fill="#ffffff" fill-opacity="1"><g transform="translate(144.990223, 431.249998)"><g><path d="M 15.46875 0.515625 C 11.394531 0.515625 8.132812 -0.757812 5.6875 -3.3125 C 3.238281 -5.875 2.015625 -9.382812 2.015625 -13.84375 L 2.015625 -39.578125 C 2.015625 -45.128906 3.117188 -49.3125 5.328125 -52.125 C 7.535156 -54.945312 11.003906 -56.359375 15.734375 -56.359375 C 19.847656 -56.359375 23.160156 -55.226562 25.671875 -52.96875 C 28.179688 -50.71875 29.4375 -47.46875 29.4375 -43.21875 L 29.4375 -33.609375 L 18.328125 -33.609375 L 18.328125 -41.859375 C 18.328125 -43.460938 18.128906 -44.566406 17.734375 -45.171875 C 17.347656 -45.773438 16.679688 -46.078125 15.734375 -46.078125 C 14.734375 -46.078125 14.046875 -45.726562 13.671875 -45.03125 C 13.304688 -44.34375 13.125 -43.328125 13.125 -41.984375 L 13.125 -13.96875 C 13.125 -12.5 13.34375 -11.425781 13.78125 -10.75 C 14.21875 -10.082031 14.867188 -9.75 15.734375 -9.75 C 17.460938 -9.75 18.328125 -11.15625 18.328125 -13.96875 L 18.328125 -24.046875 L 29.578125 -24.046875 L 29.578125 -13.515625 C 29.578125 -4.160156 24.875 0.515625 15.46875 0.515625 Z M 15.46875 0.515625 "/></g></g></g><g fill="#ffffff" fill-opacity="1"><g transform="translate(175.79655, 431.249998)"><g><path d="M 15.796875 0.515625 C 11.285156 0.515625 7.859375 -0.859375 5.515625 -3.609375 C 3.179688 -6.359375 2.015625 -10.222656 2.015625 -15.203125 L 2.015625 -41.796875 C 2.015625 -46.609375 3.179688 -50.238281 5.515625 -52.6875 C 7.859375 -55.132812 11.285156 -56.359375 15.796875 -56.359375 C 20.304688 -56.359375 23.726562 -55.132812 26.0625 -52.6875 C 28.40625 -50.238281 29.578125 -46.609375 29.578125 -41.796875 L 29.578125 -15.203125 C 29.578125 -10.179688 28.40625 -6.304688 26.0625 -3.578125 C 23.726562 -0.847656 20.304688 0.515625 15.796875 0.515625 Z M 15.796875 -9.75 C 16.796875 -9.75 17.46875 -10.179688 17.8125 -11.046875 C 18.15625 -11.910156 18.328125 -13.125 18.328125 -14.6875 L 18.328125 -41.984375 C 18.328125 -43.203125 18.164062 -44.1875 17.84375 -44.9375 C 17.519531 -45.695312 16.859375 -46.078125 15.859375 -46.078125 C 13.992188 -46.078125 13.0625 -44.671875 13.0625 -41.859375 L 13.0625 -14.625 C 13.0625 -13.019531 13.253906 -11.804688 13.640625 -10.984375 C 14.035156 -10.160156 14.753906 -9.75 15.796875 -9.75 Z M 15.796875 -9.75 "/></g></g></g><g fill="#ffffff" fill-opacity="1"><g transform="translate(207.382779, 431.249998)"><g><path d="M 2.46875 0 L 2.46875 -55.828125 L 19.5 -55.828125 L 24.1875 -21.78125 L 28.859375 -55.828125 L 46.015625 -55.828125 L 46.015625 0 L 35.8125 0 L 35.8125 -40.234375 L 29.375 0 L 19.375 0 L 12.546875 -40.234375 L 12.546875 0 Z M 2.46875 0 "/></g></g></g><g fill="#ffffff" fill-opacity="1"><g transform="translate(255.866999, 431.249998)"><g><path d="M 15.796875 0.515625 C 11.285156 0.515625 7.859375 -0.859375 5.515625 -3.609375 C 3.179688 -6.359375 2.015625 -10.222656 2.015625 -15.203125 L 2.015625 -41.796875 C 2.015625 -46.609375 3.179688 -50.238281 5.515625 -52.6875 C 7.859375 -55.132812 11.285156 -56.359375 15.796875 -56.359375 C 20.304688 -56.359375 23.726562 -55.132812 26.0625 -52.6875 C 28.40625 -50.238281 29.578125 -46.609375 29.578125 -41.796875 L 29.578125 -15.203125 C 29.578125 -10.179688 28.40625 -6.304688 26.0625 -3.578125 C 23.726562 -0.847656 20.304688 0.515625 15.796875 0.515625 Z M 15.796875 -9.75 C 16.796875 -9.75 17.46875 -10.179688 17.8125 -11.046875 C 18.15625 -11.910156 18.328125 -13.125 18.328125 -14.6875 L 18.328125 -41.984375 C 18.328125 -43.203125 18.164062 -44.1875 17.84375 -44.9375 C 17.519531 -45.695312 16.859375 -46.078125 15.859375 -46.078125 C 13.992188 -46.078125 13.0625 -44.671875 13.0625 -41.859375 L 13.0625 -14.625 C 13.0625 -13.019531 13.253906 -11.804688 13.640625 -10.984375 C 14.035156 -10.160156 14.753906 -9.75 15.796875 -9.75 Z M 15.796875 -9.75 "/></g></g></g><g fill="#ffffff" fill-opacity="1"><g transform="translate(287.453229, 431.249998)"><g/></g></g><g fill="#bd00ff" fill-opacity="1"><g transform="translate(302.666, 431.249998)"><g><path d="M 15.46875 0.515625 C 11.394531 0.515625 8.132812 -0.757812 5.6875 -3.3125 C 3.238281 -5.875 2.015625 -9.382812 2.015625 -13.84375 L 2.015625 -39.578125 C 2.015625 -45.128906 3.117188 -49.3125 5.328125 -52.125 C 7.535156 -54.945312 11.003906 -56.359375 15.734375 -56.359375 C 19.847656 -56.359375 23.160156 -55.226562 25.671875 -52.96875 C 28.179688 -50.71875 29.4375 -47.46875 29.4375 -43.21875 L 29.4375 -33.609375 L 18.328125 -33.609375 L 18.328125 -41.859375 C 18.328125 -43.460938 18.128906 -44.566406 17.734375 -45.171875 C 17.347656 -45.773438 16.679688 -46.078125 15.734375 -46.078125 C 14.734375 -46.078125 14.046875 -45.726562 13.671875 -45.03125 C 13.304688 -44.34375 13.125 -43.328125 13.125 -41.984375 L 13.125 -13.96875 C 13.125 -12.5 13.34375 -11.425781 13.78125 -10.75 C 14.21875 -10.082031 14.867188 -9.75 15.734375 -9.75 C 17.460938 -9.75 18.328125 -11.15625 18.328125 -13.96875 L 18.328125 -24.046875 L 29.578125 -24.046875 L 29.578125 -13.515625 C 29.578125 -4.160156 24.875 0.515625 15.46875 0.515625 Z M 15.46875 0.515625 "/></g></g></g><g fill="#bd00ff" fill-opacity="1"><g transform="translate(333.472327, 431.249998)"><g><path d="M 15.796875 0.515625 C 11.285156 0.515625 7.859375 -0.859375 5.515625 -3.609375 C 3.179688 -6.359375 2.015625 -10.222656 2.015625 -15.203125 L 2.015625 -41.796875 C 2.015625 -46.609375 3.179688 -50.238281 5.515625 -52.6875 C 7.859375 -55.132812 11.285156 -56.359375 15.796875 -56.359375 C 20.304688 -56.359375 23.726562 -55.132812 26.0625 -52.6875 C 28.40625 -50.238281 29.578125 -46.609375 29.578125 -41.796875 L 29.578125 -15.203125 C 29.578125 -10.179688 28.40625 -6.304688 26.0625 -3.578125 C 23.726562 -0.847656 20.304688 0.515625 15.796875 0.515625 Z M 15.796875 -9.75 C 16.796875 -9.75 17.46875 -10.179688 17.8125 -11.046875 C 18.15625 -11.910156 18.328125 -13.125 18.328125 -14.6875 L 18.328125 -41.984375 C 18.328125 -43.203125 18.164062 -44.1875 17.84375 -44.9375 C 17.519531 -45.695312 16.859375 -46.078125 15.859375 -46.078125 C 13.992188 -46.078125 13.0625 -44.671875 13.0625 -41.859375 L 13.0625 -14.625 C 13.0625 -13.019531 13.253906 -11.804688 13.640625 -10.984375 C 14.035156 -10.160156 14.753906 -9.75 15.796875 -9.75 Z M 15.796875 -9.75 "/></g></g></g><g fill="#bd00ff" fill-opacity="1"><g transform="translate(365.058556, 431.249998)"><g><path d="M 2.46875 0 L 2.46875 -55.828125 L 13.96875 -55.828125 L 19.109375 -29.125 L 19.109375 -55.828125 L 29.90625 -55.828125 L 29.90625 0 L 18.984375 0 L 13.390625 -27.953125 L 13.390625 0 Z M 2.46875 0 "/></g></g></g><g fill="#bd00ff" fill-opacity="1"><g transform="translate(397.424689, 431.249998)"><g><path d="M 15.734375 0.515625 C 10.660156 0.515625 6.992188 -0.738281 4.734375 -3.25 C 2.484375 -5.757812 1.359375 -9.8125 1.359375 -15.40625 L 1.359375 -20.859375 L 12.34375 -20.859375 L 12.34375 -13.90625 C 12.34375 -11.132812 13.234375 -9.75 15.015625 -9.75 C 16.015625 -9.75 16.707031 -10.039062 17.09375 -10.625 C 17.488281 -11.207031 17.6875 -12.191406 17.6875 -13.578125 C 17.6875 -15.398438 17.46875 -16.90625 17.03125 -18.09375 C 16.59375 -19.289062 16.035156 -20.289062 15.359375 -21.09375 C 14.691406 -21.894531 13.492188 -23.140625 11.765625 -24.828125 L 6.953125 -29.640625 C 3.222656 -33.273438 1.359375 -37.304688 1.359375 -41.734375 C 1.359375 -46.492188 2.453125 -50.117188 4.640625 -52.609375 C 6.835938 -55.109375 10.035156 -56.359375 14.234375 -56.359375 C 19.265625 -56.359375 22.882812 -55.023438 25.09375 -52.359375 C 27.300781 -49.691406 28.40625 -45.519531 28.40625 -39.84375 L 17.03125 -39.84375 L 16.96875 -43.6875 C 16.96875 -44.414062 16.757812 -44.992188 16.34375 -45.421875 C 15.9375 -45.859375 15.363281 -46.078125 14.625 -46.078125 C 13.757812 -46.078125 13.109375 -45.835938 12.671875 -45.359375 C 12.242188 -44.890625 12.03125 -44.242188 12.03125 -43.421875 C 12.03125 -41.597656 13.066406 -39.710938 15.140625 -37.765625 L 21.640625 -31.53125 C 23.160156 -30.050781 24.414062 -28.648438 25.40625 -27.328125 C 26.40625 -26.003906 27.207031 -24.441406 27.8125 -22.640625 C 28.425781 -20.847656 28.734375 -18.71875 28.734375 -16.25 C 28.734375 -10.75 27.722656 -6.578125 25.703125 -3.734375 C 23.691406 -0.898438 20.367188 0.515625 15.734375 0.515625 Z M 15.734375 0.515625 "/></g></g></g><g fill="#bd00ff" fill-opacity="1"><g transform="translate(427.38611, 431.249998)"><g><path d="M 2.46875 0 L 2.46875 -55.828125 L 24.828125 -55.828125 L 24.828125 -45.046875 L 13.84375 -45.046875 L 13.84375 -34.1875 L 24.375 -34.1875 L 24.375 -23.65625 L 13.84375 -23.65625 L 13.84375 -10.859375 L 25.546875 -10.859375 L 25.546875 0 Z M 2.46875 0 "/></g></g></g><g fill="#bd00ff" fill-opacity="1"><g transform="translate(454.162915, 431.249998)"><g><path d="M 13.96875 0.515625 C 9.945312 0.515625 6.945312 -0.898438 4.96875 -3.734375 C 3 -6.578125 2.015625 -10.878906 2.015625 -16.640625 L 2.015625 -40.6875 C 2.015625 -45.84375 3.160156 -49.742188 5.453125 -52.390625 C 7.753906 -55.035156 11.179688 -56.359375 15.734375 -56.359375 C 19.410156 -56.359375 22.265625 -55.617188 24.296875 -54.140625 C 26.335938 -52.671875 27.75 -50.523438 28.53125 -47.703125 C 29.3125 -44.890625 29.703125 -41.273438 29.703125 -36.859375 L 18.78125 -36.859375 L 18.78125 -41.859375 C 18.78125 -43.203125 18.597656 -44.238281 18.234375 -44.96875 C 17.867188 -45.707031 17.207031 -46.078125 16.25 -46.078125 C 14.125 -46.078125 13.0625 -44.691406 13.0625 -41.921875 L 13.0625 -14.890625 C 13.0625 -13.191406 13.273438 -11.910156 13.703125 -11.046875 C 14.140625 -10.179688 14.898438 -9.75 15.984375 -9.75 C 17.066406 -9.75 17.828125 -10.179688 18.265625 -11.046875 C 18.703125 -11.910156 18.921875 -13.191406 18.921875 -14.890625 L 18.921875 -22.875 L 15.921875 -22.875 L 15.921875 -32.5 L 29.578125 -32.5 L 29.578125 0 L 25.09375 0 L 23.203125 -4.6875 C 21.210938 -1.21875 18.132812 0.515625 13.96875 0.515625 Z M 13.96875 0.515625 "/></g></g></g><g fill="#bd00ff" fill-opacity="1"><g transform="translate(485.684153, 431.249998)"><g><path d="M 15.40625 0.515625 C 10.8125 0.515625 7.394531 -0.78125 5.15625 -3.375 C 2.925781 -5.976562 1.8125 -9.835938 1.8125 -14.953125 L 1.8125 -55.828125 L 12.671875 -55.828125 L 12.671875 -15.40625 C 12.671875 -13.625 12.84375 -12.234375 13.1875 -11.234375 C 13.539062 -10.242188 14.28125 -9.75 15.40625 -9.75 C 16.53125 -9.75 17.265625 -10.234375 17.609375 -11.203125 C 17.960938 -12.179688 18.140625 -13.582031 18.140625 -15.40625 L 18.140625 -55.828125 L 28.984375 -55.828125 L 28.984375 -14.953125 C 28.984375 -9.835938 27.867188 -5.976562 25.640625 -3.375 C 23.410156 -0.78125 20 0.515625 15.40625 0.515625 Z M 15.40625 0.515625 "/></g></g></g><g fill="#bd00ff" fill-opacity="1"><g transform="translate(516.490468, 431.249998)"><g><path d="M 1.953125 0 L 1.953125 -55.828125 L 12.734375 -55.828125 L 12.734375 0 Z M 1.953125 0 "/></g></g></g><g fill="#bd00ff" fill-opacity="1"><g transform="translate(531.24371, 431.249998)"><g><path d="M 2.46875 -55.828125 L 19.625 -55.828125 C 22.351562 -55.828125 24.460938 -55.207031 25.953125 -53.96875 C 27.453125 -52.738281 28.460938 -51.007812 28.984375 -48.78125 C 29.503906 -46.550781 29.765625 -43.703125 29.765625 -40.234375 C 29.765625 -37.066406 29.351562 -34.59375 28.53125 -32.8125 C 27.707031 -31.039062 26.28125 -29.8125 24.25 -29.125 C 25.9375 -28.769531 27.160156 -27.921875 27.921875 -26.578125 C 28.679688 -25.234375 29.0625 -23.414062 29.0625 -21.125 L 28.921875 0 L 18 0 L 18 -21.84375 C 18 -23.40625 17.695312 -24.398438 17.09375 -24.828125 C 16.488281 -25.265625 15.382812 -25.484375 13.78125 -25.484375 L 13.78125 0 L 2.46875 0 Z M 16.515625 -35.171875 C 18.066406 -35.171875 18.84375 -36.859375 18.84375 -40.234375 C 18.84375 -41.703125 18.773438 -42.804688 18.640625 -43.546875 C 18.515625 -44.285156 18.28125 -44.796875 17.9375 -45.078125 C 17.59375 -45.359375 17.09375 -45.5 16.4375 -45.5 L 13.84375 -45.5 L 13.84375 -35.171875 Z M 16.515625 -35.171875 "/></g></g></g><g fill="#bd00ff" fill-opacity="1"><g transform="translate(562.244998, 431.249998)"><g/></g></g><g fill="#ffffff" fill-opacity="1"><g transform="translate(577.458952, 431.249998)"><g><path d="M 15.734375 0.515625 C 10.660156 0.515625 6.992188 -0.738281 4.734375 -3.25 C 2.484375 -5.757812 1.359375 -9.8125 1.359375 -15.40625 L 1.359375 -20.859375 L 12.34375 -20.859375 L 12.34375 -13.90625 C 12.34375 -11.132812 13.234375 -9.75 15.015625 -9.75 C 16.015625 -9.75 16.707031 -10.039062 17.09375 -10.625 C 17.488281 -11.207031 17.6875 -12.191406 17.6875 -13.578125 C 17.6875 -15.398438 17.46875 -16.90625 17.03125 -18.09375 C 16.59375 -19.289062 16.035156 -20.289062 15.359375 -21.09375 C 14.691406 -21.894531 13.492188 -23.140625 11.765625 -24.828125 L 6.953125 -29.640625 C 3.222656 -33.273438 1.359375 -37.304688 1.359375 -41.734375 C 1.359375 -46.492188 2.453125 -50.117188 4.640625 -52.609375 C 6.835938 -55.109375 10.035156 -56.359375 14.234375 -56.359375 C 19.265625 -56.359375 22.882812 -55.023438 25.09375 -52.359375 C 27.300781 -49.691406 28.40625 -45.519531 28.40625 -39.84375 L 17.03125 -39.84375 L 16.96875 -43.6875 C 16.96875 -44.414062 16.757812 -44.992188 16.34375 -45.421875 C 15.9375 -45.859375 15.363281 -46.078125 14.625 -46.078125 C 13.757812 -46.078125 13.109375 -45.835938 12.671875 -45.359375 C 12.242188 -44.890625 12.03125 -44.242188 12.03125 -43.421875 C 12.03125 -41.597656 13.066406 -39.710938 15.140625 -37.765625 L 21.640625 -31.53125 C 23.160156 -30.050781 24.414062 -28.648438 25.40625 -27.328125 C 26.40625 -26.003906 27.207031 -24.441406 27.8125 -22.640625 C 28.425781 -20.847656 28.734375 -18.71875 28.734375 -16.25 C 28.734375 -10.75 27.722656 -6.578125 25.703125 -3.734375 C 23.691406 -0.898438 20.367188 0.515625 15.734375 0.515625 Z M 15.734375 0.515625 "/></g></g></g><g fill="#ffffff" fill-opacity="1"><g transform="translate(607.420372, 431.249998)"><g><path d="M 2.46875 0 L 2.46875 -55.828125 L 24.828125 -55.828125 L 24.828125 -45.046875 L 13.84375 -45.046875 L 13.84375 -34.1875 L 24.375 -34.1875 L 24.375 -23.65625 L 13.84375 -23.65625 L 13.84375 -10.859375 L 25.546875 -10.859375 L 25.546875 0 Z M 2.46875 0 "/></g></g></g><g fill="#ffffff" fill-opacity="1"><g transform="translate(634.197177, 431.249998)"><g><path d="M 15.40625 0.515625 C 10.8125 0.515625 7.394531 -0.78125 5.15625 -3.375 C 2.925781 -5.976562 1.8125 -9.835938 1.8125 -14.953125 L 1.8125 -55.828125 L 12.671875 -55.828125 L 12.671875 -15.40625 C 12.671875 -13.625 12.84375 -12.234375 13.1875 -11.234375 C 13.539062 -10.242188 14.28125 -9.75 15.40625 -9.75 C 16.53125 -9.75 17.265625 -10.234375 17.609375 -11.203125 C 17.960938 -12.179688 18.140625 -13.582031 18.140625 -15.40625 L 18.140625 -55.828125 L 28.984375 -55.828125 L 28.984375 -14.953125 C 28.984375 -9.835938 27.867188 -5.976562 25.640625 -3.375 C 23.410156 -0.78125 20 0.515625 15.40625 0.515625 Z M 15.40625 0.515625 "/></g></g></g><g fill="#ffffff" fill-opacity="1"><g transform="translate(284.138654, 500.249995)"><g><path d="M 2.46875 0 L 2.46875 -55.828125 L 24.828125 -55.828125 L 24.828125 -45.046875 L 13.84375 -45.046875 L 13.84375 -34.1875 L 24.375 -34.1875 L 24.375 -23.65625 L 13.84375 -23.65625 L 13.84375 -10.859375 L 25.546875 -10.859375 L 25.546875 0 Z M 2.46875 0 "/></g></g></g><g fill="#ffffff" fill-opacity="1"><g transform="translate(310.915458, 500.249995)"><g><path d="M 2.46875 0 L 2.46875 -55.828125 L 19.5 -55.828125 L 24.1875 -21.78125 L 28.859375 -55.828125 L 46.015625 -55.828125 L 46.015625 0 L 35.8125 0 L 35.8125 -40.234375 L 29.375 0 L 19.375 0 L 12.546875 -40.234375 L 12.546875 0 Z M 2.46875 0 "/></g></g></g><g fill="#ffffff" fill-opacity="1"><g transform="translate(359.399679, 500.249995)"><g><path d="M 2.46875 -55.828125 L 17.21875 -55.828125 C 21.6875 -55.828125 24.875 -54.382812 26.78125 -51.5 C 28.6875 -48.625 29.640625 -44.414062 29.640625 -38.875 C 29.640625 -33.320312 28.789062 -29.132812 27.09375 -26.3125 C 25.40625 -23.5 22.375 -22.09375 18 -22.09375 L 13.453125 -22.09375 L 13.453125 0 L 2.46875 0 Z M 14.109375 -32.171875 C 15.453125 -32.171875 16.4375 -32.421875 17.0625 -32.921875 C 17.6875 -33.421875 18.097656 -34.132812 18.296875 -35.0625 C 18.492188 -36 18.59375 -37.332031 18.59375 -39.0625 C 18.59375 -41.40625 18.332031 -43.09375 17.8125 -44.125 C 17.289062 -45.164062 16.25 -45.6875 14.6875 -45.6875 L 13.453125 -45.6875 L 13.453125 -32.171875 Z M 14.109375 -32.171875 "/></g></g></g><g fill="#ffffff" fill-opacity="1"><g transform="translate(390.076022, 500.249995)"><g><path d="M 2.46875 -55.828125 L 19.625 -55.828125 C 22.351562 -55.828125 24.460938 -55.207031 25.953125 -53.96875 C 27.453125 -52.738281 28.460938 -51.007812 28.984375 -48.78125 C 29.503906 -46.550781 29.765625 -43.703125 29.765625 -40.234375 C 29.765625 -37.066406 29.351562 -34.59375 28.53125 -32.8125 C 27.707031 -31.039062 26.28125 -29.8125 24.25 -29.125 C 25.9375 -28.769531 27.160156 -27.921875 27.921875 -26.578125 C 28.679688 -25.234375 29.0625 -23.414062 29.0625 -21.125 L 28.921875 0 L 18 0 L 18 -21.84375 C 18 -23.40625 17.695312 -24.398438 17.09375 -24.828125 C 16.488281 -25.265625 15.382812 -25.484375 13.78125 -25.484375 L 13.78125 0 L 2.46875 0 Z M 16.515625 -35.171875 C 18.066406 -35.171875 18.84375 -36.859375 18.84375 -40.234375 C 18.84375 -41.703125 18.773438 -42.804688 18.640625 -43.546875 C 18.515625 -44.285156 18.28125 -44.796875 17.9375 -45.078125 C 17.59375 -45.359375 17.09375 -45.5 16.4375 -45.5 L 13.84375 -45.5 L 13.84375 -35.171875 Z M 16.515625 -35.171875 "/></g></g></g><g fill="#ffffff" fill-opacity="1"><g transform="translate(421.077322, 500.249995)"><g><path d="M 2.46875 0 L 2.46875 -55.828125 L 24.828125 -55.828125 L 24.828125 -45.046875 L 13.84375 -45.046875 L 13.84375 -34.1875 L 24.375 -34.1875 L 24.375 -23.65625 L 13.84375 -23.65625 L 13.84375 -10.859375 L 25.546875 -10.859375 L 25.546875 0 Z M 2.46875 0 "/></g></g></g><g fill="#ffffff" fill-opacity="1"><g transform="translate(447.854127, 500.249995)"><g><path d="M 13.96875 0.515625 C 9.945312 0.515625 6.945312 -0.898438 4.96875 -3.734375 C 3 -6.578125 2.015625 -10.878906 2.015625 -16.640625 L 2.015625 -40.6875 C 2.015625 -45.84375 3.160156 -49.742188 5.453125 -52.390625 C 7.753906 -55.035156 11.179688 -56.359375 15.734375 -56.359375 C 19.410156 -56.359375 22.265625 -55.617188 24.296875 -54.140625 C 26.335938 -52.671875 27.75 -50.523438 28.53125 -47.703125 C 29.3125 -44.890625 29.703125 -41.273438 29.703125 -36.859375 L 18.78125 -36.859375 L 18.78125 -41.859375 C 18.78125 -43.203125 18.597656 -44.238281 18.234375 -44.96875 C 17.867188 -45.707031 17.207031 -46.078125 16.25 -46.078125 C 14.125 -46.078125 13.0625 -44.691406 13.0625 -41.921875 L 13.0625 -14.890625 C 13.0625 -13.191406 13.273438 -11.910156 13.703125 -11.046875 C 14.140625 -10.179688 14.898438 -9.75 15.984375 -9.75 C 17.066406 -9.75 17.828125 -10.179688 18.265625 -11.046875 C 18.703125 -11.910156 18.921875 -13.191406 18.921875 -14.890625 L 18.921875 -22.875 L 15.921875 -22.875 L 15.921875 -32.5 L 29.578125 -32.5 L 29.578125 0 L 25.09375 0 L 23.203125 -4.6875 C 21.210938 -1.21875 18.132812 0.515625 13.96875 0.515625 Z M 13.96875 0.515625 "/></g></g></g><g fill="#ffffff" fill-opacity="1"><g transform="translate(479.375354, 500.249995)"><g><path d="M 15.796875 0.515625 C 11.285156 0.515625 7.859375 -0.859375 5.515625 -3.609375 C 3.179688 -6.359375 2.015625 -10.222656 2.015625 -15.203125 L 2.015625 -41.796875 C 2.015625 -46.609375 3.179688 -50.238281 5.515625 -52.6875 C 7.859375 -55.132812 11.285156 -56.359375 15.796875 -56.359375 C 20.304688 -56.359375 23.726562 -55.132812 26.0625 -52.6875 C 28.40625 -50.238281 29.578125 -46.609375 29.578125 -41.796875 L 29.578125 -15.203125 C 29.578125 -10.179688 28.40625 -6.304688 26.0625 -3.578125 C 23.726562 -0.847656 20.304688 0.515625 15.796875 0.515625 Z M 15.796875 -9.75 C 16.796875 -9.75 17.46875 -10.179688 17.8125 -11.046875 C 18.15625 -11.910156 18.328125 -13.125 18.328125 -14.6875 L 18.328125 -41.984375 C 18.328125 -43.203125 18.164062 -44.1875 17.84375 -44.9375 C 17.519531 -45.695312 16.859375 -46.078125 15.859375 -46.078125 C 13.992188 -46.078125 13.0625 -44.671875 13.0625 -41.859375 L 13.0625 -14.625 C 13.0625 -13.019531 13.253906 -11.804688 13.640625 -10.984375 C 14.035156 -10.160156 14.753906 -9.75 15.796875 -9.75 Z M 15.796875 -9.75 "/></g></g></g><g fill="#ffffff" fill-opacity="1"><g transform="translate(510.961595, 500.249995)"><g><path d="M 3.96875 -15.203125 L 1.75 -55.828125 L 13.125 -55.828125 L 10.859375 -15.203125 Z M 1.75 0 L 1.75 -9.484375 L 13.125 -9.484375 L 13.125 0 Z M 1.75 0 "/></g></g></g><path stroke-linecap="butt" transform="matrix(0.75, 0, 0, 0.75, 276.504335, 505.225315)" fill="none" stroke-linejoin="miter" d="M -0.000571919 5.001664 L 345.598404 5.001664 " stroke="#ff3131" stroke-width="10" stroke-opacity="1" stroke-miterlimit="4"/></svg>